# xmcd
#
# Track frame offsets: 
#        150
#        14199
#        26669
#        38040
#        50439
#        60776
#        72133
#        83034
#        94827
#        107682
#        119860
#        131475
#        143381
#        155063
#        166747
#        179251
#        191236
#        203334
#        214418
#        226480
#        239057
#        250994
#        261381
#        271474
#        282282
#
# Disc length: 3919 seconds
#
# Revision: 2
# Processed by: cddbd v1.5.2PL0 Copyright (c) Steve Scherf et al.
# Submitted via: ExactAudioCopyFreeDBPlugin 1.0
#
DISCID=720f4d19
DTITLE=Various Artist - Bullet Records Blues
DYEAR=2007
DGENRE=Blues
TTITLE0=St. Louis Jimmy - Going Down Slow
TTITLE1=St. Louis Jimmy - I Ain't Done Nothing Wrong
TTITLE2=St. Louis Jimmy - My Trouble
TTITLE3=St. Louis Jimmy - Sittin' And Thinkin'
TTITLE4=St. Louis Jimmy - Mr. Brown Boogie
TTITLE5=Roosevelt Sykes - Candy Man Blues
TTITLE6=Roosevelt Sykes - Why Sould I Cry
TTITLE7=Walter Davis - Move Back To The Woods
TTITLE8=Walter Davis - You've Got To Reap What You Sow
TTITLE9=Walter Davis - Wonder What I'm Doing Wrong
TTITLE10=Walter Davis - Got To See Her Every Night
TTITLE11=Walter Davis - So Long Baby
TTITLE12=Walter Davis - I Just Can't Help It
TTITLE13=Smoky Hogg - Hard Times
TTITLE14=Joe Williams - Jivin' Woman
TTITLE15=Joe Williams - She's A Married Woman
TTITLE16=B.B. King - Miss Martha King
TTITLE17=B.B. King - When Your Baby Packs Up And Goes
TTITLE18=Rudy Greene - Evil Man Blues
TTITLE19=Rudy Greene - No Good Woman Blues
TTITLE20=Rudy Greene - Florida Blues
TTITLE21=Little Eddie - My Baby Left Me
TTITLE22=Litte Eddie - Darling You Know I Love You
TTITLE23=J.D. Horton - Why Don't You Let Me Be
TTITLE24=J.D. Horton - Cadilac Blues
EXTD=
EXTT0=
EXTT1=
EXTT2=
EXTT3=
EXTT4=
EXTT5=
EXTT6=
EXTT7=
EXTT8=
EXTT9=
EXTT10=
EXTT11=
EXTT12=
EXTT13=
EXTT14=
EXTT15=
EXTT16=
EXTT17=
EXTT18=
EXTT19=
EXTT20=
EXTT21=
EXTT22=
EXTT23=
EXTT24=
PLAYORDER=
